<?xml version="1.0" encoding="UTF-8" standalone="no"?>
<!-- Created with Inkscape (http://www.inkscape.org/) -->

<svg
   xmlns:dc="http://purl.org/dc/elements/1.1/"
   xmlns:cc="http://creativecommons.org/ns#"
   xmlns:rdf="http://www.w3.org/1999/02/22-rdf-syntax-ns#"
   xmlns:svg="http://www.w3.org/2000/svg"
   xmlns="http://www.w3.org/2000/svg"
   xmlns:xlink="http://www.w3.org/1999/xlink"
   xmlns:sodipodi="http://sodipodi.sourceforge.net/DTD/sodipodi-0.dtd"
   xmlns:inkscape="http://www.inkscape.org/namespaces/inkscape"
   width="48.046738mm"
   height="20.276947mm"
   viewBox="0 0 48.046738 20.276947"
   version="1.1"
   id="svg8"
   sodipodi:docname="logo_w.svg"
   inkscape:version="0.92.2 (5c3e80d, 2017-08-06)"
   style="enable-background:new">
  <sodipodi:namedview
     id="base"
     pagecolor="#ffffff"
     bordercolor="#666666"
     borderopacity="1.0"
     inkscape:pageopacity="0.0"
     inkscape:pageshadow="2"
     inkscape:zoom="1"
     inkscape:cx="-169.27308"
     inkscape:cy="34.141788"
     inkscape:document-units="mm"
     inkscape:current-layer="layer1"
     showgrid="false"
     showguides="true"
     inkscape:guide-bbox="true"
     inkscape:window-width="1920"
     inkscape:window-height="986"
     inkscape:window-x="-11"
     inkscape:window-y="-11"
     inkscape:window-maximized="1"
     fit-margin-top="0"
     fit-margin-left="0"
     fit-margin-right="0"
     fit-margin-bottom="0">
    <sodipodi:guide
       inkscape:locked="false"
       id="guide4555"
       orientation="0,1"
       position="15.208044,23.330073" />
    <sodipodi:guide
       inkscape:locked="false"
       id="guide4557"
       orientation="0,1"
       position="17.66489,38.827093" />
    <sodipodi:guide
       inkscape:locked="false"
       id="guide4559"
       orientation="0,1"
       position="47.383268,26.259383" />
    <sodipodi:guide
       inkscape:locked="false"
       id="guide4561"
       orientation="0,1"
       position="47.997477,33.677163" />
    <sodipodi:guide
       inkscape:locked="false"
       id="guide4816"
       orientation="0,1"
       position="53.950602,36.511993" />
    <sodipodi:guide
       position="52.445641,2.9768229"
       orientation="0,1"
       id="guide7485"
       inkscape:locked="false" />
  </sodipodi:namedview>
  <defs
     id="defs2">
    <pattern
       patternTransform="matrix(1.3056473,0.90745737,-1.9321159,2.7799234,0,0)"
       id="pattern6513"
       xlink:href="#Strips1_1"
       inkscape:collect="always" />
    <pattern
       inkscape:collect="always"
       patternUnits="userSpaceOnUse"
       width="2"
       height="1"
       patternTransform="translate(0,0) scale(10,10)"
       id="Strips1_1"
       inkscape:stockid="Stripes 1:1"
       inkscape:isstock="true">
      <rect
         style="fill:black;stroke:none"
         x="0"
         y="-0.5"
         width="1"
         height="2"
         id="rect5707" />
    </pattern>
    <filter
       inkscape:menu-tooltip="Combine a HSL edges detection bump with a leathery or woody and colorizable texture"
       inkscape:menu="Bumps"
       inkscape:label="Embossed Leather"
       height="1.4"
       width="1.4"
       x="-0.2"
       y="-0.2"
       style="color-interpolation-filters:sRGB"
       id="filter6707">
      <feGaussianBlur
         result="result14"
         stdDeviation="1.5"
         id="feGaussianBlur6681" />
      <feFlood
         result="result12"
         flood-color="rgb(146,94,26)"
         id="feFlood6683" />
      <feTurbulence
         type="turbulence"
         seed="25"
         baseFrequency="0.001 0.002"
         numOctaves="5"
         result="result5"
         id="feTurbulence6685" />
      <feDisplacementMap
         scale="100"
         xChannelSelector="R"
         in="result5"
         result="result8"
         in2="result14"
         yChannelSelector="G"
         id="feDisplacementMap6687" />
      <feComposite
         in="result8"
         result="result10"
         operator="arithmetic"
         in2="result5"
         k1="0.5"
         k2="0.5"
         id="feComposite6689"
         k3="0"
         k4="0" />
      <feSpecularLighting
         specularExponent="15"
         specularConstant="1"
         surfaceScale="-15"
         result="result2"
         id="feSpecularLighting6693">
        <feDistantLight
           elevation="90"
           azimuth="225"
           id="feDistantLight6691" />
      </feSpecularLighting>
      <feGaussianBlur
         result="result13"
         stdDeviation="0.4"
         id="feGaussianBlur6695" />
      <feDiffuseLighting
         surfaceScale="-20"
         result="result1"
         diffuseConstant="0.60000002"
         in="result13"
         id="feDiffuseLighting6699">
        <feDistantLight
           elevation="10"
           azimuth="225"
           id="feDistantLight6697" />
      </feDiffuseLighting>
      <feComposite
         result="result4"
         in="SourceGraphic"
         in2="result1"
         operator="arithmetic"
         k2="1"
         k3="0.6"
         id="feComposite6701"
         k1="0"
         k4="0" />
      <feComposite
         result="result11"
         in2="SourceGraphic"
         operator="in"
         id="feComposite6703" />
      <feBlend
         in2="result11"
         in="result11"
         result="result9"
         mode="normal"
         id="feBlend6705" />
    </filter>
    <filter
       inkscape:collect="always"
       style="color-interpolation-filters:sRGB"
       id="filter6973">
      <feBlend
         inkscape:collect="always"
         mode="overlay"
         in2="BackgroundImage"
         id="feBlend6975" />
    </filter>
    <filter
       inkscape:collect="always"
       style="color-interpolation-filters:sRGB"
       id="filter7172">
      <feBlend
         inkscape:collect="always"
         mode="overlay"
         in2="BackgroundImage"
         id="feBlend7174" />
    </filter>
    <clipPath
       clipPathUnits="userSpaceOnUse"
       id="clipPath2730">
      <path
         style="opacity:1;fill:#8dddff;fill-opacity:1;fill-rule:nonzero;stroke:none;stroke-width:0.08838835;stroke-linecap:square;stroke-miterlimit:4;stroke-dasharray:none;stroke-opacity:1"
         d="m 60.427389,67.818953 c -0.125751,0.147246 0.05899,0.309174 0.108302,0.454247 0.505365,0.999496 1.376606,1.815153 2.431484,2.204797 1.110046,0.415232 2.334503,0.46591 3.496704,0.274905 0.618572,-0.109215 1.228455,-0.304697 1.76784,-0.631471 0.01799,0.198221 -0.03019,0.406276 0.02983,0.596985 0.149693,0.105418 0.352777,0.0273 0.525547,0.05129 0.653968,-0.0051 1.311304,0.01013 1.963174,-0.0076 0.181541,-0.05459 0.08673,-0.288184 0.110146,-0.428733 -0.0051,-0.809993 0.01013,-1.623362 -0.0076,-2.431262 -0.05472,-0.18197 -0.288616,-0.08601 -0.429324,-0.108762 -0.787776,0.0087 -1.579009,-0.0029 -2.364634,0.01833 -0.161216,0.05734 -0.130056,0.278019 -0.189384,0.41461 -0.201197,0.749377 -0.557913,1.5269 -1.240258,1.958684 -0.439438,0.287991 -0.974331,0.374904 -1.491207,0.353703 -0.782484,0.02133 -1.557716,-0.382643 -1.983674,-1.040503 -0.335494,-0.482523 -0.49965,-1.056709 -0.652635,-1.614768 -0.09943,-0.145325 -0.314415,-0.05454 -0.465037,-0.08168 -0.51636,0.0019 -1.035976,-0.01693 -1.55032,-0.0026 -0.01966,0.0066 -0.03933,0.01315 -0.05899,0.01971 z"
         id="path2732"
         inkscape:connector-curvature="0" />
    </clipPath>
    <clipPath
       clipPathUnits="userSpaceOnUse"
       id="clipPath2734">
      <path
         style="opacity:1;fill:#8dddff;fill-opacity:1;fill-rule:nonzero;stroke:none;stroke-width:0.08838835;stroke-linecap:square;stroke-miterlimit:4;stroke-dasharray:none;stroke-opacity:1"
         d="m 40.321116,67.828255 c -0.125751,0.147246 0.05899,0.309174 0.108302,0.454247 0.505365,0.999496 1.376606,1.815153 2.431484,2.204797 1.110046,0.415232 2.334503,0.46591 3.496704,0.274905 0.618572,-0.109215 1.228455,-0.304697 1.76784,-0.63147 0.01799,0.19822 -0.03019,0.406275 0.02983,0.596984 0.149693,0.105418 0.352777,0.0273 0.525547,0.05129 0.653968,-0.0051 1.311304,0.01013 1.963174,-0.0076 0.181541,-0.05459 0.08673,-0.288184 0.110146,-0.428733 -0.0051,-0.809993 0.01013,-1.623362 -0.0076,-2.431262 -0.05472,-0.18197 -0.288616,-0.08601 -0.429324,-0.108762 -0.787776,0.0087 -1.579009,-0.0029 -2.364634,0.01834 -0.161216,0.05734 -0.130056,0.278019 -0.189384,0.41461 -0.201197,0.749377 -0.557913,1.5269 -1.240258,1.958684 -0.439438,0.287991 -0.974331,0.374904 -1.491207,0.353703 -0.782484,0.02133 -1.557716,-0.382643 -1.983674,-1.040503 -0.335494,-0.482523 -0.49965,-1.056709 -0.652635,-1.614768 -0.09943,-0.145325 -0.314415,-0.05454 -0.465037,-0.08168 -0.51636,0.0019 -1.035976,-0.01693 -1.55032,-0.0026 -0.01966,0.0066 -0.03933,0.01315 -0.05899,0.01971 z"
         id="path2736"
         inkscape:connector-curvature="0" />
    </clipPath>
  </defs>
  <metadata
     id="metadata5">
    <rdf:RDF>
      <cc:Work
         rdf:about="">
        <dc:format>image/svg+xml</dc:format>
        <dc:type
           rdf:resource="http://purl.org/dc/dcmitype/StillImage" />
        <dc:title />
      </cc:Work>
    </rdf:RDF>
  </metadata>
  <g
     id="layer1"
     inkscape:groupmode="layer"
     inkscape:label="レイヤー 1"
     transform="translate(-45.835109,-50.636076)">
    <rect
       y="86.89949"
       x="40.81794"
       height="23.105452"
       width="54.816978"
       id="rect7334"
       style="opacity:0.34100001;fill:#000000;fill-opacity:1;stroke:none;stroke-width:0.16500001;stroke-linecap:square;stroke-miterlimit:4;stroke-dasharray:none;stroke-opacity:1" />
    <path
       style="opacity:1;fill:#ff8829;fill-opacity:1;fill-rule:nonzero;stroke:none;stroke-width:0.065;stroke-linecap:square;stroke-miterlimit:4;stroke-dasharray:none;stroke-opacity:1"
       d="m 82.031982,50.636386 c -1.206231,-0.0081 -2.404865,0.255657 -3.532579,0.671923 -1.355787,0.555532 -2.616011,1.361241 -3.628698,2.426094 -1.866411,1.920558 -2.934955,4.610063 -2.828581,7.292094 0.0097,1.482561 0.390387,2.950525 1.063807,4.268909 0.47911,0.976074 1.127858,1.872163 1.891472,2.640796 0.307046,0.06733 0.643451,0.0094 0.961718,0.02871 4.438793,0 8.877576,0 13.316372,0 0.234567,-0.118721 0.370507,-0.380687 0.559327,-0.563853 1.439621,-1.655019 2.318075,-3.789418 2.454465,-5.97852 0.0421,-0.97092 0.003,-1.950773 -0.232717,-2.897619 -0.44366,-1.974463 -1.493524,-3.808349 -2.987555,-5.1758 -1.633181,-1.544902 -3.808859,-2.502246 -6.047364,-2.690151 -0.32938,-0.02119 -0.659717,-0.02397 -0.989667,-0.0226 z"
       id="path2749"
       inkscape:connector-curvature="0" />
    <path
       sodipodi:nodetypes="ccccccccccccccccccccccccc"
       transform="matrix(0.26458333,0,0,0.26458333,2.9689551,23.247075)"
       inkscape:connector-curvature="0"
       id="path6475-6"
       d="m 162.33458,121.47158 c -0.72469,1.69562 -0.009,2.17023 1.85783,2.25499 l 5.03222,0.0884 c 0.21989,7.51969 0.65395,15.8258 5.78914,21.82531 2.69279,2.97871 6.49424,4.82079 10.4315,5.45769 0.0708,5.87585 -0.1407,11.81306 0.10482,17.65094 3.15105,0 6.76433,0.0207 9.62712,0.0207 0.28703,-5.6553 0.0245,-11.32972 0.10718,-17.02203 -0.2365,-1.18102 1.48367,-0.71397 2.22213,-1.1939 5.51451,-1.39639 9.98523,-5.76249 11.77428,-11.12762 1.84946,-4.982 2.0759,-10.35641 2.22276,-15.61107 2.11706,-0.11147 4.33149,0.22506 6.38645,-0.17214 0.72469,-1.69561 -0.38488,-2.89251 -2.14509,-2.34338 -7.0559,0.0698 -14.17249,-0.13965 -21.19043,0.10482 -0.90686,1.26935 -0.099,2.23749 1.74499,2.4107 h 5.6244 c -0.32484,6.70934 0.18808,13.62783 -1.9552,20.09454 -1.31004,3.65847 -4.8296,6.71087 -8.88027,6.40421 -2.72206,0.14149 -5.71427,-0.3513 -7.67676,-2.47951 -3.87499,-4.18758 -3.94923,-10.30842 -4.34145,-15.65807 -0.16219,-2.75248 -0.2506,-5.78065 -0.11536,-8.53437 2.26776,-0.16033 4.66853,0.42164 6.86925,-0.0206 0.7142,-1.69685 -0.40497,-2.86173 -2.15151,-2.32168 -7.0559,0.0698 -14.17249,-0.13965 -21.19042,0.10482 z"
       style="opacity:1;fill:#ffffff;fill-opacity:1;fill-rule:nonzero;stroke:none;stroke-width:0.09448819;stroke-linecap:square;stroke-miterlimit:4;stroke-dasharray:none;stroke-opacity:1" />
    <path
       sodipodi:nodetypes="cccccccccccccccc"
       inkscape:connector-curvature="0"
       id="path6487-9"
       d="m 166.05145,26.491548 c -0.2875,4.10694 -0.0403,8.31072 -0.12281,12.45477 -2.30421,0.11204 -4.70565,-0.22335 -6.94826,0.17214 -0.72468,1.69561 0.38489,2.89251 2.1451,2.34338 h 4.74002 c 0.28048,7.83918 -0.0994,16.293588 3.01271,23.684608 l 7.73101,-0.03482 c 0,0 0.68396,0.65746 -0.1558,-1.47836 -0.9771,-7.35011 -0.58591,-14.76653 -0.68517,-22.17143 2.21882,-0.11686 4.66383,0.43169 6.82031,0.028 0.31844,-1.66436 -0.50997,-3.09268 -2.27018,-2.54355 h -4.55062 c -0.0704,-4.11114 0.13918,-8.28312 -0.10482,-12.35652 -1.36512,-0.63012 -3.25268,-0.0912 -4.81474,-0.27039 -1.57829,0.11395 -3.28487,-0.22894 -4.79675,0.17214 z"
       style="opacity:1;fill:#ffffff;fill-opacity:1;stroke:none;stroke-width:0.09544748;stroke-linecap:square;stroke-miterlimit:4;stroke-dasharray:none;stroke-opacity:1"
       transform="matrix(0.26458333,0,0,0.26458333,44.363144,50.673257)" />
    <path
       sodipodi:nodetypes="cccccccccccccccc"
       inkscape:connector-curvature="0"
       id="path6485-8"
       d="m 106.70499,37.098158 c -0.28715,5.62059 -0.0405,11.33783 -0.12282,16.99552 0.1129,3.64924 -0.36094,7.43091 0.0382,11.01795 2.98839,0 6.6167,0 9.39666,0 1.10625,-0.90345 0.11517,-2.84021 0.4367,-4.18416 0.19826,-6.22807 0.22482,-12.80339 3.25351,-18.44117 1.70413,-3.01345 5.75339,-3.36971 8.67212,-3.25833 -0.76306,2.36718 1.8226,4.08302 3.92174,4.08007 2.09089,0.20184 5.14523,-0.90502 5.05372,-3.39694 -0.44241,-2.32601 -3.15922,-2.94795 -5.18689,-2.8154 -4.52815,0.10756 -9.7935,-0.52011 -13.46985,2.7064 -1.37563,1.31537 -1.99242,3.20415 -2.26446,5.04238 -0.12707,-2.5886 0.21243,-5.26976 -0.18447,-7.79564 -3.01096,-0.28756 -6.11893,-0.0394 -9.16684,-0.12281 l -0.22976,0.10481 z"
       style="opacity:1;fill:#ffffff;fill-opacity:1;stroke:none;stroke-width:0.09544748;stroke-linecap:square;stroke-miterlimit:4;stroke-dasharray:none;stroke-opacity:1"
       transform="matrix(0.26458333,0,0,0.26458333,44.363144,50.673257)" />
    <circle
       r="10.062135"
       cy="37.520817"
       cx="81.846344"
       id="path4716"
       style="opacity:1;fill:#ffd375;fill-opacity:1;stroke:#000000;stroke-width:0.065;stroke-linecap:square;stroke-miterlimit:4;stroke-dasharray:none;stroke-opacity:1" />
    <path
       style="opacity:1;fill:#20314c;fill-opacity:1;stroke:none;stroke-width:0.04772374;stroke-linecap:square;stroke-miterlimit:4;stroke-dasharray:none;stroke-opacity:1"
       d="m 273.13275,140.72851 c -0.37031,0.97519 -0.064,2.10966 -0.164,3.14834 0.0203,3.20885 -0.0406,6.42483 0.0303,9.62925 1.87415,5.4554 4.7919,10.61741 8.88421,14.7175 0.95795,0.53823 0.93122,-0.85928 0.90211,-1.46343 0.24532,-6.08905 0.25012,-12.39053 2.28573,-18.18294 0.72631,-2.09035 2.00298,-4.26659 4.2539,-4.94379 1.72325,-0.61002 3.72877,-0.86092 5.42019,-0.72285 -0.57022,1.34418 0.28326,2.8735 1.56357,3.42283 2.25344,1.28184 5.52339,0.96088 7.1749,-1.13815 0.88721,-1.08023 0.35064,-2.66016 -0.69522,-3.4211 -1.56187,-1.39004 -3.77498,-1.09336 -5.69913,-1.16205 -3.27844,0.051 -6.6796,0.0561 -9.77623,1.26465 -2.38239,0.94994 -3.95143,3.29211 -4.34422,5.77496 -0.083,0.23266 -0.0117,-1.21388 -0.0353,-1.62831 -0.0588,-1.71474 0.11873,-3.47344 -0.0908,-5.16013 -0.5682,-0.54792 -1.56025,-0.13725 -2.3031,-0.26426 -2.39342,0.0306 -4.80958,-0.061 -7.18889,0.0454 l -0.11782,0.0454 z"
       id="path7039"
       inkscape:connector-curvature="0"
       transform="scale(0.26458333)" />
    <path
       style="opacity:1;fill:#20314c;fill-opacity:1;stroke:none;stroke-width:0.04772374;stroke-linecap:square;stroke-miterlimit:4;stroke-dasharray:none;stroke-opacity:1"
       d="m 332.47922,129.99564 c -0.37032,0.97519 -0.064,2.10966 -0.16401,3.14834 v 9.47536 c -2.18465,0.0308 -4.39214,-0.0611 -6.56272,0.0454 -0.72378,0.37173 -0.24196,1.42615 -0.38207,2.09598 0.27638,0.88655 1.44823,0.35638 2.14139,0.4999 h 4.93732 c -0.20032,7.33982 -0.29153,14.91992 2.22968,21.92421 0.32482,0.59746 0.3379,1.75014 1.19681,1.80075 0.81801,-0.3149 1.27964,-1.2153 1.90905,-1.79997 1.70266,-1.95576 3.33653,-4.02457 4.50728,-6.34679 0.046,-1.73159 -0.0945,-3.50039 -0.075,-5.24534 -0.0203,-3.4436 -0.10854,-6.89132 -0.0104,-10.33286 1.55406,-0.0872 3.03554,0.25353 4.56463,-0.0689 0.12117,-0.02 0.29772,0.12709 0.33067,-0.10842 0.0614,-0.4392 0.10685,-1.33305 0.14721,-2.12162 -0.5682,-0.54793 -1.44307,-0.21538 -2.18592,-0.34239 -0.94248,-0.0199 -1.9747,0.0422 -2.8556,-0.0538 -0.11745,-4.10259 0.0182,-8.22825 -0.0992,-12.31733 -0.37187,-0.72337 -1.42566,-0.24341 -2.09598,-0.38208 -2.43558,0.0302 -4.89365,-0.0605 -7.31516,0.0454 l -0.11782,0.0454 z"
       id="path7041"
       inkscape:connector-curvature="0"
       transform="scale(0.26458333)"
       sodipodi:nodetypes="ccccccccccccccscccccccc" />
    <text
       id="text823"
       y="47.570713"
       x="101.80085"
       style="font-style:normal;font-weight:normal;font-size:10.58333302px;line-height:1.25;font-family:sans-serif;letter-spacing:0px;word-spacing:0px;fill:#000000;fill-opacity:1;stroke:none;stroke-width:0.26458332"
       xml:space="preserve"><tspan
         style="font-style:normal;font-variant:normal;font-weight:normal;font-stretch:normal;font-size:22.57777786px;font-family:Constantia;-inkscape-font-specification:'Constantia, Normal';font-variant-ligatures:normal;font-variant-caps:normal;font-variant-numeric:normal;font-feature-settings:normal;text-align:start;writing-mode:lr-tb;text-anchor:start;stroke-width:0.26458332"
         y="47.570713"
         x="101.80085"
         id="tspan821"
         sodipodi:role="line">Yurot</tspan></text>
    <path
       sodipodi:nodetypes="cc"
       inkscape:connector-curvature="0"
       id="path4708"
       d="m 74.816867,39.97619 c 0,-2.7405 1.66157,-2.740329 4.36173,-2.740329"
       style="fill:none;stroke:#000000;stroke-width:0.16500001;stroke-linecap:butt;stroke-linejoin:miter;stroke-miterlimit:4;stroke-dasharray:none;stroke-opacity:1" />
    <path
       d="m 79.178597,37.235861 c 0.670669,0 1.214355,0.367933 1.214355,0.821802 0,0.453869 -0.552041,0.83008 -1.22271,0.83008 -0.670669,0 -1.214354,-0.367933 -1.214354,-0.821802 0,-0.11211 0.03317,-0.218976 0.08291,-0.313356 -1.623297,0.003 -2.091375,0.466099 -2.360795,0.932748 -0.71692,1.241743 -0.876175,3.423387 -0.876175,5.623626 m 0,0 0.01504,3.177184 H 72.248192 V 37.235859 h 2.568675 v 2.740331"
       style="fill:none;stroke:#000000;stroke-width:0.16500001;stroke-linecap:butt;stroke-linejoin:miter;stroke-miterlimit:4;stroke-dasharray:none;stroke-opacity:1"
       id="path4712"
       inkscape:connector-curvature="0" />
    <path
       sodipodi:nodetypes="cccccccccccc"
       inkscape:connector-curvature="0"
       d="m 90.502458,39.931073 0.0098,-1.527364 m 0,-0.627632 v -3.376758 m -2.543541,5.577042 0.0099,-1.572652 m -0.0059,-0.627632 -0.004,-3.375046 m 0,5.57533 c 0,3.634013 0.829107,7.561297 5.589794,7.561297 m -3.056099,-7.606585 c 0,3.679425 0.03945,7.606587 3.0561,7.606587"
       style="fill:none;stroke:#000000;stroke-width:0.16635777;stroke-linecap:butt;stroke-linejoin:miter;stroke-miterlimit:4;stroke-dasharray:none;stroke-opacity:1"
       id="path4599-5-3-8" />
    <path
       sodipodi:nodetypes="cc"
       inkscape:connector-curvature="0"
       id="path4651-5-1"
       d="m 87.968763,34.401031 2.543495,-0.0017"
       style="fill:none;stroke:#000000;stroke-width:0.16500001;stroke-linecap:square;stroke-linejoin:miter;stroke-miterlimit:4;stroke-dasharray:none;stroke-opacity:1" />
    <circle
       r="10.062135"
       cy="37.520817"
       cx="191.98206"
       id="path4716-1"
       style="opacity:0.91000001;fill:#ffd375;fill-opacity:1;stroke:#000000;stroke-width:0.16500001;stroke-linecap:square;stroke-miterlimit:4;stroke-dasharray:none;stroke-opacity:1" />
    <rect
       y="39.966164"
       x="159.20059"
       height="7.535778"
       width="2.5671761"
       id="rect4551-3"
       style="opacity:0.91000001;fill:none;fill-opacity:1;stroke:#000000;stroke-width:0.16500001;stroke-linecap:square;stroke-miterlimit:4;stroke-dasharray:none;stroke-opacity:1" />
    <path
       id="path4866-6"
       d="m 179.5699,40.021652 v -2.78579"
       style="fill:none;stroke:#000000;stroke-width:0.16635777;stroke-linecap:butt;stroke-linejoin:miter;stroke-miterlimit:4;stroke-dasharray:none;stroke-opacity:1"
       inkscape:connector-curvature="0" />
    <path
       id="path4864-3"
       d="M 177.03621,39.976364 V 37.235862"
       style="fill:none;stroke:#000000;stroke-width:0.16635777;stroke-linecap:butt;stroke-linejoin:miter;stroke-miterlimit:4;stroke-dasharray:none;stroke-opacity:1"
       inkscape:connector-curvature="0" />
    <path
       id="path4862-6"
       d="M 170.92401,39.976364 V 37.235862"
       style="fill:none;stroke:#000000;stroke-width:0.16635777;stroke-linecap:butt;stroke-linejoin:miter;stroke-miterlimit:4;stroke-dasharray:none;stroke-opacity:1"
       inkscape:connector-curvature="0" />
    <path
       id="path4860-6"
       d="M 168.39031,40.021652 V 37.235861"
       style="fill:none;stroke:#000000;stroke-width:0.16635777;stroke-linecap:butt;stroke-linejoin:miter;stroke-miterlimit:4;stroke-dasharray:none;stroke-opacity:1"
       inkscape:connector-curvature="0" />
    <path
       id="path4858-9"
       d="m 179.5699,40.021652 c 0,3.634013 -0.82911,7.561297 -5.58979,7.561297"
       style="fill:none;stroke:#000000;stroke-width:0.16635777;stroke-linecap:butt;stroke-linejoin:miter;stroke-miterlimit:4;stroke-dasharray:none;stroke-opacity:1"
       inkscape:connector-curvature="0" />
    <path
       id="path4856-8"
       d="m 177.03621,39.976364 c 0,3.679425 -0.0395,7.606587 -3.0561,7.606587"
       style="fill:none;stroke:#000000;stroke-width:0.16635777;stroke-linecap:butt;stroke-linejoin:miter;stroke-miterlimit:4;stroke-dasharray:none;stroke-opacity:1"
       inkscape:connector-curvature="0" />
    <path
       id="path4854-1"
       d="m 168.39031,40.021652 c 0,3.634013 0.82911,7.561297 5.5898,7.561297"
       style="fill:none;stroke:#000000;stroke-width:0.16635777;stroke-linecap:butt;stroke-linejoin:miter;stroke-miterlimit:4;stroke-dasharray:none;stroke-opacity:1"
       inkscape:connector-curvature="0" />
    <path
       id="path4599-5-3-5"
       d="m 170.92401,39.976364 c 0,3.679425 0.0395,7.606587 3.0561,7.606587"
       style="fill:none;stroke:#000000;stroke-width:0.16635777;stroke-linecap:butt;stroke-linejoin:miter;stroke-miterlimit:4;stroke-dasharray:none;stroke-opacity:1"
       inkscape:connector-curvature="0" />
    <path
       sodipodi:nodetypes="cc"
       inkscape:connector-curvature="0"
       id="path4651-9"
       d="m 168.39031,37.235861 2.5337,10e-7"
       style="fill:none;stroke:#000000;stroke-width:0.16500001;stroke-linecap:square;stroke-linejoin:miter;stroke-miterlimit:4;stroke-dasharray:none;stroke-opacity:1" />
    <path
       sodipodi:nodetypes="cc"
       inkscape:connector-curvature="0"
       id="path4651-5-2"
       d="m 177.03621,37.235862 h 2.53369"
       style="fill:none;stroke:#000000;stroke-width:0.16500001;stroke-linecap:square;stroke-linejoin:miter;stroke-miterlimit:4;stroke-dasharray:none;stroke-opacity:1" />
    <rect
       y="37.235859"
       x="182.38391"
       height="10.250285"
       width="2.5686748"
       id="rect4551-1-3-3"
       style="opacity:0.91000001;fill:none;fill-opacity:1;stroke:#000000;stroke-width:0.19313398;stroke-linecap:square;stroke-miterlimit:4;stroke-dasharray:none;stroke-opacity:1" />
    <path
       sodipodi:nodetypes="cc"
       inkscape:connector-curvature="0"
       id="path4708-1"
       d="m 184.97117,39.976361 c 0,-2.740499 1.64297,-2.740499 4.34313,-2.740499"
       style="fill:none;stroke:#000000;stroke-width:0.16500001;stroke-linecap:butt;stroke-linejoin:miter;stroke-miterlimit:4;stroke-dasharray:none;stroke-opacity:1" />
    <ellipse
       ry="0.82180232"
       rx="1.2143546"
       cy="38.065941"
       cx="189.30595"
       id="path4710-1"
       style="opacity:0.91000001;fill:none;fill-opacity:1;stroke:#000000;stroke-width:0.16500001;stroke-linecap:square;stroke-miterlimit:4;stroke-dasharray:none;stroke-opacity:1" />
    <path
       sodipodi:nodetypes="csc"
       inkscape:connector-curvature="0"
       id="path4712-4"
       d="m 188.16417,37.755578 c -1.61297,0 -2.08105,0.463106 -2.35047,0.929755 -0.71692,1.241743 -0.87617,3.423387 -0.87617,5.623626"
       style="fill:none;stroke:#000000;stroke-width:0.16500001;stroke-linecap:butt;stroke-linejoin:miter;stroke-miterlimit:4;stroke-dasharray:none;stroke-opacity:1" />
    <path
       sodipodi:nodetypes="cccccccc"
       inkscape:connector-curvature="0"
       d="m 201.69649,39.931073 v -5.530041 m -2.53369,5.575329 v -5.57533 m 0,5.57533 c 0,3.634013 0.82911,7.561297 5.58979,7.561297 m -3.0561,-7.606585 c 0,3.679425 0.0394,7.606587 3.0561,7.606587"
       style="fill:none;stroke:#000000;stroke-width:0.16635777;stroke-linecap:butt;stroke-linejoin:miter;stroke-miterlimit:4;stroke-dasharray:none;stroke-opacity:1"
       id="path4599-5-3-8-4" />
    <path
       sodipodi:nodetypes="cc"
       inkscape:connector-curvature="0"
       id="path4651-5-1-7"
       d="m 199.1628,34.401031 2.53369,10e-7"
       style="fill:none;stroke:#000000;stroke-width:0.16500001;stroke-linecap:square;stroke-linejoin:miter;stroke-miterlimit:4;stroke-dasharray:none;stroke-opacity:1" />
    <rect
       y="32.08593"
       x="153.08437"
       height="0.62763143"
       width="6.2412462"
       id="rect4748-9"
       style="opacity:0.91000001;fill:none;fill-opacity:1;stroke:#000000;stroke-width:0.16500001;stroke-linecap:square;stroke-miterlimit:4;stroke-dasharray:none;stroke-opacity:1" />
    <rect
       y="32.08593"
       x="161.58539"
       height="0.62763143"
       width="6.2412462"
       id="rect4748-2-1"
       style="opacity:0.91000001;fill:none;fill-opacity:1;stroke:#000000;stroke-width:0.16500001;stroke-linecap:square;stroke-miterlimit:4;stroke-dasharray:none;stroke-opacity:1" />
    <rect
       y="37.776077"
       x="197.30272"
       height="0.62763143"
       width="6.2412462"
       id="rect4748-2-0-1"
       style="opacity:0.91000001;fill:none;fill-opacity:1;stroke:#000000;stroke-width:0.16500001;stroke-linecap:square;stroke-miterlimit:4;stroke-dasharray:none;stroke-opacity:1" />
    <path
       sodipodi:nodetypes="cc"
       inkscape:connector-curvature="0"
       id="path4810-3"
       d="m 164.79302,32.085931 c 11.12505,4.504627 25.78621,4.310764 37.78148,6.283859"
       style="fill:none;stroke:#000000;stroke-width:0.1;stroke-linecap:butt;stroke-linejoin:miter;stroke-miterlimit:4;stroke-dasharray:none;stroke-opacity:1" />
    <path
       sodipodi:nodetypes="cc"
       inkscape:connector-curvature="0"
       id="path4812-1"
       d="m 156.02043,32.085931 c 10.09292,4.373984 24.74375,5.622702 42.14718,6.297392"
       style="fill:none;stroke:#000000;stroke-width:0.1;stroke-linecap:butt;stroke-linejoin:miter;stroke-miterlimit:4;stroke-dasharray:none;stroke-opacity:1" />
    <path
       sodipodi:nodetypes="cccccccc"
       inkscape:connector-curvature="0"
       d="m 166.10278,32.13291 c 0,3.769624 -0.8291,7.843465 -5.58979,7.843465 m 3.0561,-7.890444 c 0,3.816732 -0.0394,7.890446 -3.0561,7.890446 M 154.9232,32.13291 c 0,3.769624 0.8291,7.843465 5.58979,7.843465 m -3.0561,-7.890444 c 0,3.816732 0.0394,7.890446 3.0561,7.890446"
       style="fill:none;stroke:#000000;stroke-width:0.16500001;stroke-linecap:butt;stroke-linejoin:miter;stroke-miterlimit:4;stroke-dasharray:none;stroke-opacity:1"
       id="path4599-5-3-0-9" />
    <path
       sodipodi:nodetypes="cccc"
       inkscape:connector-curvature="0"
       id="rect4551-1-9"
       d="m 179.57107,39.976364 v 7.525581 h -2.53487 v -7.525581"
       style="opacity:0.91000001;fill:none;fill-opacity:1;stroke:#000000;stroke-width:0.16500001;stroke-linecap:square;stroke-miterlimit:4;stroke-dasharray:none;stroke-opacity:1" />
    <path
       sodipodi:nodetypes="cccccccc"
       inkscape:connector-curvature="0"
       id="rect4748-2-0"
       d="m 90.512304,37.776077 h 1.837608 v 0.627632 h -1.837608 m -2.533621,0 h -1.870017 v -0.627632 h 1.864111"
       style="opacity:0.91000001;fill:none;fill-opacity:1;stroke:#000000;stroke-width:0.16500001;stroke-linecap:square;stroke-miterlimit:4;stroke-dasharray:none;stroke-opacity:1" />
    <path
       sodipodi:nodetypes="cccccccccccccccc"
       transform="scale(0.26458333)"
       inkscape:connector-curvature="0"
       id="path6485"
       d="m 273.15547,140.75617 c -0.28715,5.62059 -0.0405,11.33783 -0.12282,16.99552 0.1129,3.64924 -0.36094,7.43091 0.0382,11.01795 2.98839,0 6.6167,0 9.39666,0 1.10625,-0.90345 0.11517,-2.84021 0.4367,-4.18416 0.19826,-6.22807 0.22482,-12.80339 3.25351,-18.44117 1.70413,-3.01345 5.75339,-3.36971 8.67212,-3.25833 -0.76306,2.36718 1.8226,4.08302 3.92174,4.08007 2.09089,0.20184 5.14523,-0.90502 5.05372,-3.39694 -0.44241,-2.32601 -3.15922,-2.94795 -5.18689,-2.8154 -4.52815,0.10756 -9.7935,-0.52011 -13.46985,2.7064 -1.37563,1.31537 -1.99242,3.20415 -2.26446,5.04238 -0.12707,-2.5886 0.21243,-5.26976 -0.18447,-7.79564 -3.01096,-0.28756 -6.11893,-0.0394 -9.16684,-0.12281 l -0.22976,0.10481 z"
       style="opacity:1;fill:#20314c;fill-opacity:1;stroke:#20314c;stroke-width:0.09544748;stroke-linecap:square;stroke-miterlimit:4;stroke-dasharray:none;stroke-opacity:1;filter:url(#filter6973)" />
    <path
       sodipodi:nodetypes="ccccccccccccccc"
       transform="scale(0.26458333)"
       inkscape:connector-curvature="0"
       id="path6487"
       d="m 332.50193,130.14956 c -0.2875,4.10694 -0.0403,8.31072 -0.12281,12.45477 -2.30421,0.11204 -4.70565,-0.22335 -6.94826,0.17214 -0.72468,1.69561 0.38489,2.89251 2.1451,2.34338 h 4.74002 c 0.28048,7.83918 0.20045,16.25877 3.31259,23.64979 h 7.43113 c 0,0 0.68396,0.65746 -0.1558,-1.47836 -0.9771,-7.35011 -0.58591,-14.76653 -0.68517,-22.17143 2.21882,-0.11686 4.66383,0.43169 6.82031,0.028 0.31844,-1.66436 -0.50997,-3.09268 -2.27018,-2.54355 h -4.55062 c -0.0704,-4.11114 0.13918,-8.28312 -0.10482,-12.35652 -1.36512,-0.63012 -3.25268,-0.0912 -4.81474,-0.27039 -1.57829,0.11395 -3.28487,-0.22894 -4.79675,0.17214 z"
       style="opacity:1;fill:#20314c;fill-opacity:1;stroke:#20314c;stroke-width:0.09544748;stroke-linecap:square;stroke-miterlimit:4;stroke-dasharray:none;stroke-opacity:1;filter:url(#filter6973)" />
    <path
       style="opacity:1;fill:#000000;fill-opacity:1;stroke:none;stroke-width:0.03374578;stroke-linecap:square;stroke-miterlimit:4;stroke-dasharray:none;stroke-opacity:1"
       d="m 283.63907,170.01181 c 6.62167,6.05883 15.4278,9.65513 24.39999,9.94604 2.14018,0.14003 4.28525,-0.11039 6.41241,-0.32759 6.68854,-0.90246 13.11725,-3.62023 18.41954,-7.79753 0.93645,-0.78563 2.01707,-1.46777 2.73586,-2.47025 0.23881,-0.53959 0.48935,-0.67978 0.0217,-0.59284 -17.88202,0 -38.59216,0 -52.81403,0 -0.0865,-0.16344 0.41849,0.87148 0.82453,1.24217 z"
       id="path7043"
       inkscape:connector-curvature="0"
       transform="scale(0.26458333)"
       sodipodi:nodetypes="cccccccc" />
    <g
       id="g7104"
       transform="translate(2.6458334)">
      <path
         style="opacity:0.91000001;fill:none;fill-opacity:1;stroke:#000000;stroke-width:0.16500001;stroke-linecap:square;stroke-miterlimit:4;stroke-dasharray:none;stroke-opacity:1"
         d="M 44.792703,32.713561 H 42.948654 V 32.08593 H 49.1899 v 0.627631 l -1.841433,3e-6"
         id="rect4748"
         inkscape:connector-curvature="0"
         sodipodi:nodetypes="cccccc" />
      <path
         style="opacity:0.91000001;fill:none;fill-opacity:1;stroke:#000000;stroke-width:0.16500001;stroke-linecap:square;stroke-miterlimit:4;stroke-dasharray:none;stroke-opacity:1"
         d="M 53.424572,32.713561 H 51.449684 V 32.08593 h 6.241246 v 0.627631 h -1.738642"
         id="rect4748-2"
         inkscape:connector-curvature="0"
         sodipodi:nodetypes="cccccc" />
      <g
         id="g7086">
        <path
           sodipodi:nodetypes="ccccccccccccccccccccccccc"
           transform="scale(0.26458333)"
           inkscape:connector-curvature="0"
           id="path6475"
           d="m 162.33458,121.47158 c -0.72469,1.69562 -0.009,2.17023 1.85783,2.25499 l 5.03222,0.0884 c 0.21989,7.51969 0.65395,15.8258 5.78914,21.82531 2.69279,2.97871 6.49424,4.82079 10.4315,5.45769 0.0708,5.87585 -0.1407,11.81306 0.10482,17.65094 3.15105,0 6.76433,0.0207 9.62712,0.0207 0.28703,-5.6553 0.0245,-11.32972 0.10718,-17.02203 -0.2365,-1.18102 1.48367,-0.71397 2.22213,-1.1939 5.51451,-1.39639 9.98523,-5.76249 11.77428,-11.12762 1.84946,-4.982 2.0759,-10.35641 2.22276,-15.61107 2.11706,-0.11147 4.33149,0.22506 6.38645,-0.17214 0.72469,-1.69561 -0.38488,-2.89251 -2.14509,-2.34338 -7.0559,0.0698 -14.17249,-0.13965 -21.19043,0.10482 -0.90686,1.26935 -0.099,2.23749 1.74499,2.4107 h 5.6244 c -0.32484,6.70934 0.18808,13.62783 -1.9552,20.09454 -1.31004,3.65847 -4.8296,6.71087 -8.88027,6.40421 -2.72206,0.14149 -5.71427,-0.3513 -7.67676,-2.47951 -3.87499,-4.18758 -3.94923,-10.30842 -4.34145,-15.65807 -0.16219,-2.75248 -0.2506,-5.78065 -0.11536,-8.53437 2.26776,-0.16033 4.66853,0.42164 6.86925,-0.0206 0.7142,-1.69685 -0.40497,-2.86173 -2.15151,-2.32168 -7.0559,0.0698 -14.17249,-0.13965 -21.19042,0.10482 z"
           style="opacity:1;fill:#20314c;fill-opacity:1;stroke:#20314c;stroke-width:0.09448819;stroke-linecap:square;stroke-miterlimit:4;stroke-dasharray:none;stroke-opacity:1;filter:url(#filter6973)" />
        <g
           id="g7079">
          <path
             style="opacity:0.91000001;fill:none;fill-opacity:1;stroke:#000000;stroke-width:0.16500001;stroke-linecap:square;stroke-miterlimit:4;stroke-dasharray:none;stroke-opacity:1"
             d="m 51.632056,39.966164 v 7.535777 H 49.06488 v -7.535777"
             id="rect4551"
             inkscape:connector-curvature="0"
             sodipodi:nodetypes="cccc" />
          <path
             id="path4599-5-3-0"
             style="fill:none;stroke:#000000;stroke-width:0.16500001;stroke-linecap:butt;stroke-linejoin:miter;stroke-miterlimit:4;stroke-dasharray:none;stroke-opacity:1"
             d="m 55.952288,32.713561 c 0,3.406879 -0.675544,6.66993 -4.320232,7.252603 m 1.792516,-7.252607 c 0,3.816732 -0.007,7.109251 -3.035476,7.109251 -3.016721,0 -3.040629,-3.292512 -3.040629,-7.109244 m -2.555764,-10e-6 c 0,3.400685 0.645711,6.663552 4.272177,7.252603"
             inkscape:connector-curvature="0"
             sodipodi:nodetypes="ccccccc" />
          <path
             transform="scale(0.26458333)"
             inkscape:connector-curvature="0"
             id="path7051"
             d="m 185.55009,168.74891 c -0.28818,3.39812 0.0124,6.79132 -0.0705,10.22662 0.89887,1.10251 2.91194,0.21392 4.25,0.5 1.78059,-0.1113 3.65856,0.22694 5.37696,-0.17139 0.28818,-3.39811 -0.0122,-7.0992 0.0707,-10.5345 -2.79312,0 -6.92047,-0.0207 -9.62716,-0.0207 z"
             style="opacity:1;fill:#000000;fill-opacity:1;stroke:none;stroke-width:0.09448819;stroke-linecap:square;stroke-miterlimit:4;stroke-dasharray:none;stroke-opacity:1"
             sodipodi:nodetypes="ccccccc" />
        </g>
      </g>
    </g>
    <path
       style="opacity:1;fill:#000000;fill-opacity:1;stroke:none;stroke-width:0.09448819;stroke-linecap:square;stroke-miterlimit:4;stroke-dasharray:none;stroke-opacity:1"
       d="m 273.07085,168.76964 c -0.28818,3.39812 -0.008,6.77059 -0.0912,10.20589 0.89887,1.10251 2.91194,0.21392 4.25,0.5 1.78059,-0.1113 3.65856,0.22694 5.37696,-0.17139 0.28818,-3.39811 0.12509,-7.0992 0.20793,-10.5345 -2.81108,0 -7.00056,0 -9.74367,0 z"
       id="path7057"
       inkscape:connector-curvature="0"
       transform="scale(0.26458333)"
       sodipodi:nodetypes="cccccc" />
    <path
       style="opacity:1;fill:#000000;fill-opacity:1;stroke:none;stroke-width:0.09448819;stroke-linecap:square;stroke-miterlimit:4;stroke-dasharray:none;stroke-opacity:1"
       d="m 335.62857,168.76964 c 0.48736,2.03252 2.28309,4.13872 3.62059,5.69466 2.21208,2.18544 5.07468,3.85265 8.12745,4.44531 1.24888,-0.57546 -0.25839,-1.69999 -0.76563,-2.2793 -1.98565,-2.17582 -2.64226,-5.11677 -3.55128,-7.86067 -1.825,0 -6.44801,0 -7.43113,0 z"
       id="path7059"
       inkscape:connector-curvature="0"
       transform="scale(0.26458333)"
       sodipodi:nodetypes="cccccc" />
    <g
       id="g7183"
       transform="translate(1.0583333)">
      <path
         style="fill:none;stroke:#000000;stroke-width:0.16635777;stroke-linecap:butt;stroke-linejoin:miter;stroke-miterlimit:4;stroke-dasharray:none;stroke-opacity:1"
         d="m 66.869195,46.827556 c -0.768643,0.47705 -1.757394,0.755393 -3.024793,0.755393"
         id="path4858"
         inkscape:connector-curvature="0"
         sodipodi:nodetypes="cc" />
      <path
         id="rect4551-1"
         style="opacity:0.91000001;fill:none;fill-opacity:1;stroke:#000000;stroke-width:0.16500001;stroke-linecap:square;stroke-miterlimit:4;stroke-dasharray:none;stroke-opacity:1"
         d="m 69.43536,39.976364 v 7.525581 h -2.534863 v -0.676799 m 4e-6,-9.589285 2.533695,10e-7 m -11.179588,-2e-6 2.533695,10e-7 m 0,2.740503 c 0,3.679425 0.05615,7.364374 3.072802,7.364374 m -5.606497,-7.319086 c 0,3.634013 0.829107,7.561297 5.589794,7.561297 m 3.056099,-7.606585 c 0,3.679425 -0.02275,7.364374 -3.039396,7.364374 M 58.254608,40.021652 V 37.23586 m 2.533695,2.740504 v -2.740503 m 6.112198,2.740503 v -2.740503 m 2.533695,2.785791 v -2.785791"
         inkscape:connector-curvature="0"
         sodipodi:nodetypes="cccccccccccccccccccccc" />
      <path
         style="opacity:1;fill:#20314c;fill-opacity:1;stroke:#20314c;stroke-width:0.09544748;stroke-linecap:square;stroke-miterlimit:4;stroke-dasharray:none;stroke-opacity:1;filter:url(#filter7172)"
         d="m 220.16581,140.91702 c -0.25543,5.14354 -0.14804,10.38739 0.16752,15.55836 0.33813,4.25751 0.99669,8.43056 2.78254,12.29426 2.53791,0 5.03236,0 7.50462,0 0.16447,-1.21976 -0.32083,-2.41247 -0.27247,-3.68199 -0.60242,-7.9915 -0.20699,-16.09586 -0.62457,-24.07716 -1.36126,-0.6203 -3.23314,-0.0887 -4.78654,-0.26565 -1.56908,0.11555 -3.26872,-0.23123 -4.7711,0.17214 z"
         id="path6477"
         inkscape:connector-curvature="0"
         transform="scale(0.26458333)"
         sodipodi:nodetypes="ccccccccc" />
      <path
         style="opacity:1;fill:#20314c;fill-opacity:1;stroke:#20314c;stroke-width:0.09544748;stroke-linecap:square;stroke-miterlimit:4;stroke-dasharray:none;stroke-opacity:1;filter:url(#filter6973)"
         d="m 253.0737,140.91702 c -0.41048,6.86238 -0.18806,13.81759 -0.54916,20.71173 0.003,2.40055 -0.66238,4.75818 -0.66606,7.14089 2.88885,0 7.41588,0 10.27583,0 0.19066,-0.63831 0.42848,-0.66756 0.32523,-2.2708 v -25.25381 c -0.91054,-1.10579 -2.93831,-0.21196 -4.28822,-0.50015 -1.6824,0.1087 -3.47982,-0.22182 -5.09762,0.17214 z"
         id="path6479"
         inkscape:connector-curvature="0"
         transform="scale(0.26458333)"
         sodipodi:nodetypes="cccccccc" />
      <path
         transform="scale(0.26458333)"
         inkscape:connector-curvature="0"
         id="path7053"
         d="m 251.80776,168.77729 c -0.96436,3.09174 -1.99814,6.4495 -4.77002,8.43798 -1.0402,0.93806 -2.52773,1.09263 -3.64356,1.81495 0.12727,1.31056 1.95059,0.37314 2.87074,0.38519 2.24928,-0.36931 4.43485,-1.41096 6.42565,-2.27777 0.1498,1.03452 -0.44043,3.00321 1.28906,2.58789 2.77947,-0.11643 5.65937,0.23067 8.37696,-0.17139 0.2878,-3.48509 0.15029,-7.26237 0.23353,-10.7845 -3.2924,0 -7.70325,0.008 -10.78236,0.008 z"
         style="opacity:1;fill:#000000;fill-opacity:1;stroke:none;stroke-width:0.09448819;stroke-linecap:square;stroke-miterlimit:4;stroke-dasharray:none;stroke-opacity:1"
         sodipodi:nodetypes="ccccccccc" />
      <path
         transform="scale(0.26458333)"
         inkscape:connector-curvature="0"
         id="path7055"
         d="m 223.11587,168.76964 c 0.0199,1.43777 1.50218,2.71279 2.18388,3.92376 2.99111,4.23905 8.16978,6.73011 13.27852,6.9706 1.12815,-0.68869 -0.46832,-1.38043 -1.13184,-1.5 -3.84847,-1.4738 -5.5055,-5.70305 -6.45947,-9.39436 -1.93197,0 -5.9614,0 -7.87109,0 z"
         style="opacity:1;fill:#000000;fill-opacity:1;stroke:none;stroke-width:0.09448819;stroke-linecap:square;stroke-miterlimit:4;stroke-dasharray:none;stroke-opacity:1"
         sodipodi:nodetypes="cccccc" />
      <path
         transform="scale(0.26458333)"
         inkscape:connector-curvature="0"
         id="path7061"
         d="m 239.00787,178.55088 c -0.32226,0.0219 -0.51788,0.34662 -0.49091,0.64783 -0.137,0.35309 0.17278,0.73492 0.53791,0.73224 1.31147,0.10083 2.63049,0.0869 3.94385,0.0314 0.31415,-0.0196 0.75322,0.0233 0.88689,-0.33898 0.1144,-0.25345 -0.0228,-0.54497 -0.14202,-0.77326 -0.17017,-0.26959 -0.51301,-0.25732 -0.78635,-0.19626 -0.80787,0.10794 -1.63401,0.10432 -2.41731,0.0631 -0.50391,-0.0173 -1.0031,-0.0995 -1.50024,-0.16721 l -0.0312,10e-4 z"
         style="opacity:1;fill:#000000;fill-opacity:1;stroke:#ff0000;stroke-width:0.01181102;stroke-linecap:square;stroke-miterlimit:4;stroke-dasharray:none;stroke-opacity:1" />
    </g>
    <path
       style="opacity:1;fill:#000000;fill-opacity:1;stroke:#ff0000;stroke-width:0.01181102;stroke-linecap:square;stroke-miterlimit:4;stroke-dasharray:none;stroke-opacity:1"
       d="m 347.81945,177.86338 c -0.23373,0.0584 -0.37109,0.27103 -0.41083,0.49598 -0.22405,0.28344 -0.093,0.7535 0.26624,0.84362 0.39356,0.0932 0.78909,0.19429 1.19098,0.23987 0.36216,-0.008 0.60868,-0.44088 0.41587,-0.7526 -0.20416,-0.29187 -0.57673,-0.39345 -0.85292,-0.60473 -0.18243,-0.12881 -0.37324,-0.26568 -0.60934,-0.22214 z"
       id="path7063"
       inkscape:connector-curvature="0"
       transform="scale(0.26458333)" />
    <path
       sodipodi:nodetypes="cc"
       inkscape:connector-curvature="0"
       id="path4812"
       d="m 48.673096,32.085922 c 10.09292,4.373983 20.983221,5.635681 38.386649,6.310371"
       style="fill:none;stroke:#000000;stroke-width:0.1;stroke-linecap:butt;stroke-linejoin:miter;stroke-miterlimit:4;stroke-dasharray:none;stroke-opacity:1" />
    <path
       sodipodi:nodetypes="cc"
       inkscape:connector-curvature="0"
       id="path4810"
       d="m 56.877028,32.102459 c 11.125057,4.504627 22.544779,4.335629 34.54005,6.308725"
       style="fill:none;stroke:#000000;stroke-width:0.1;stroke-linecap:butt;stroke-linejoin:miter;stroke-miterlimit:4;stroke-dasharray:none;stroke-opacity:1" />
    <circle
       r="10.062135"
       cy="60.767891"
       cx="82.169479"
       id="path4716-6"
       style="opacity:1;fill:none;fill-opacity:1;stroke:none;stroke-width:0.065;stroke-linecap:square;stroke-miterlimit:4;stroke-dasharray:none;stroke-opacity:1" />
    <path
       style="opacity:1;fill:#ffffff;fill-opacity:1;stroke:none;stroke-width:0.01262691;stroke-linecap:square;stroke-miterlimit:4;stroke-dasharray:none;stroke-opacity:1"
       d="m 72.589495,60.481493 c -0.09798,0.258019 -0.01693,0.558181 -0.04339,0.832998 0.0054,0.849008 -0.01074,1.699903 0.008,2.547739 0.495869,1.443408 1.267857,2.80919 2.350614,3.894005 0.253457,0.142407 0.246385,-0.227351 0.238683,-0.387199 0.06491,-1.611061 0.06618,-3.278327 0.604766,-4.810903 0.19217,-0.553071 0.529955,-1.128868 1.125511,-1.308044 0.455943,-0.161401 0.98657,-0.227785 1.434092,-0.191254 -0.150871,0.355648 0.07495,0.76028 0.413695,0.905624 0.596222,0.339153 1.461397,0.254233 1.898359,-0.301136 0.234741,-0.285811 0.09277,-0.703834 -0.183944,-0.905166 -0.413245,-0.367781 -0.998797,-0.289285 -1.507895,-0.307459 -0.86742,0.01349 -1.767311,0.01484 -2.586627,0.334605 -0.630341,0.251339 -1.045483,0.871038 -1.149409,1.527959 -0.02196,0.06156 -0.0031,-0.321173 -0.0093,-0.430824 -0.01556,-0.453692 0.03141,-0.919014 -0.02403,-1.365284 -0.150336,-0.144971 -0.412816,-0.03631 -0.609361,-0.06992 -0.63326,0.0081 -1.272535,-0.01614 -1.902061,0.01201 l -0.03117,0.01201 z"
       id="path7039-1"
       inkscape:connector-curvature="0" />
    <path
       style="opacity:1;fill:#ffffff;fill-opacity:1;stroke:#ffffff;stroke-width:0.01262691;stroke-linecap:square;stroke-miterlimit:4;stroke-dasharray:none;stroke-opacity:1"
       d="m 88.291585,57.641755 c -0.098,0.258019 -0.0169,0.55818 -0.0434,0.832998 v 2.507022 c -0.57803,0.0081 -1.16209,-0.01617 -1.73639,0.01201 -0.1915,0.09835 -0.064,0.377336 -0.10109,0.554561 0.0731,0.234567 0.38318,0.09429 0.56658,0.132266 h 1.30633 c -0.053,1.941994 -0.0771,3.947562 0.58994,5.80078 0.0859,0.158078 0.02655,0.415138 0.2538,0.428529 0.21643,-0.08332 0.40142,-0.273628 0.56795,-0.428322 0.4505,-0.517462 0.88279,-1.064835 1.19256,-1.679255 0.0122,-0.45815 -0.025,-0.926145 -0.0198,-1.38783 -0.005,-0.911119 -0.0287,-1.823328 -0.003,-2.733902 0.41117,-0.02307 0.80315,0.06708 1.20772,-0.01823 0.0321,-0.0053 0.0788,0.03363 0.0875,-0.02869 0.0162,-0.116205 0.0283,-0.352703 0.0389,-0.561346 -0.15034,-0.144973 -0.38181,-0.05699 -0.57836,-0.09059 -0.24936,-0.0053 -0.52247,0.01117 -0.75554,-0.01424 -0.0311,-1.085477 0.005,-2.177057 -0.0263,-3.25896 -0.0984,-0.191392 -0.37721,-0.0644 -0.55456,-0.101092 -0.64442,0.008 -1.29478,-0.01601 -1.93547,0.01201 l -0.0312,0.01201 z"
       id="path7041-0"
       inkscape:connector-curvature="0"
       sodipodi:nodetypes="ccccccccccccccscccccccc" />
    <path
       sodipodi:nodetypes="cc"
       inkscape:connector-curvature="0"
       id="path4708-9"
       d="m 75.139988,63.223265 c 0,-2.7405 1.66157,-2.740329 4.36173,-2.740329"
       style="fill:none;stroke:#ffffff;stroke-width:0.16500001;stroke-linecap:butt;stroke-linejoin:miter;stroke-miterlimit:4;stroke-dasharray:none;stroke-opacity:1" />
    <path
       inkscape:connector-curvature="0"
       d="m 79.501718,60.482936 c 0.670669,0 1.214356,0.367933 1.214356,0.821802 0,0.453869 -0.55204,0.83008 -1.222711,0.83008 -0.670669,0 -1.214353,-0.367933 -1.214353,-0.821802 0,-0.11211 0.03317,-0.218976 0.08291,-0.313356 -1.623298,0.003 -2.091375,0.466099 -2.360795,0.932748 -0.716921,1.241743 -0.876176,3.423387 -0.876176,5.623626 m 0,0 0.01503,3.177184 H 72.571302 V 60.482934 h 2.568673 v 2.740331"
       style="fill:none;stroke:#ffffff;stroke-width:0.16500001;stroke-linecap:butt;stroke-linejoin:miter;stroke-miterlimit:4;stroke-dasharray:none;stroke-opacity:1"
       id="path4712-0" />
    <path
       sodipodi:nodetypes="cccccccccccc"
       inkscape:connector-curvature="0"
       d="m 90.825585,63.178148 0.01,-1.527364 m 0,-0.627632 v -3.376758 m -2.54355,5.577042 0.01,-1.572652 m -0.006,-0.627632 -0.004,-3.375046 m 0,5.57533 c 0,3.634013 0.82911,7.561297 5.5898,7.561297 m -3.05609,-7.606585 c 0,3.679425 0.0395,7.606587 3.0561,7.606587"
       style="fill:none;stroke:#ffffff;stroke-width:0.16635777;stroke-linecap:butt;stroke-linejoin:miter;stroke-miterlimit:4;stroke-dasharray:none;stroke-opacity:1"
       id="path4599-5-3-8-8" />
    <path
       sodipodi:nodetypes="cc"
       inkscape:connector-curvature="0"
       id="path4651-5-1-3"
       d="m 88.291885,57.648106 2.5435,-0.0017"
       style="fill:none;stroke:#ffffff;stroke-width:0.16500001;stroke-linecap:square;stroke-linejoin:miter;stroke-miterlimit:4;stroke-dasharray:none;stroke-opacity:1" />
    <path
       sodipodi:nodetypes="cccccccc"
       inkscape:connector-curvature="0"
       id="rect4748-2-0-8"
       d="m 90.835425,61.023152 h 1.83761 v 0.627632 h -1.83761 m -2.53362,0 h -1.87002 v -0.627632 h 1.86411"
       style="opacity:1;fill:#ffffff;fill-opacity:1;stroke:#ffffff;stroke-width:0.16500001;stroke-linecap:square;stroke-miterlimit:4;stroke-dasharray:none;stroke-opacity:1" />
    <path
       sodipodi:nodetypes="cccccc"
       inkscape:connector-curvature="0"
       id="rect4748-6"
       d="m 47.761658,55.960636 h -1.844049 v -0.627631 h 6.241246 v 0.627631 l -1.841433,3e-6"
       style="opacity:0.91000001;fill:#ffffff;fill-opacity:1;stroke:#ffffff;stroke-width:0.16500001;stroke-linecap:square;stroke-miterlimit:4;stroke-dasharray:none;stroke-opacity:1" />
    <path
       sodipodi:nodetypes="cccccc"
       inkscape:connector-curvature="0"
       id="rect4748-2-9"
       d="m 56.393527,55.960636 h -1.974888 v -0.627631 h 6.241246 v 0.627631 h -1.738642"
       style="opacity:0.91000001;fill:#ffffff;fill-opacity:1;stroke:#ffffff;stroke-width:0.16500001;stroke-linecap:square;stroke-miterlimit:4;stroke-dasharray:none;stroke-opacity:1" />
    <path
       sodipodi:nodetypes="cccc"
       inkscape:connector-curvature="0"
       id="rect4551-0"
       d="m 54.601011,63.213239 v 7.535777 h -2.567176 v -7.535777"
       style="opacity:0.91000001;fill:none;fill-opacity:1;stroke:#ffffff;stroke-width:0.16500001;stroke-linecap:square;stroke-miterlimit:4;stroke-dasharray:none;stroke-opacity:1" />
    <path
       sodipodi:nodetypes="ccccccc"
       inkscape:connector-curvature="0"
       d="m 58.921243,55.960636 c 0,3.406879 -0.675544,6.66993 -4.320232,7.252603 m 1.792516,-7.252607 c 0,3.816732 -0.007,7.109251 -3.035476,7.109251 -3.016721,0 -3.040629,-3.292512 -3.040629,-7.109244 m -2.555764,-1e-5 c 0,3.400685 0.645711,6.663552 4.272177,7.252603"
       style="fill:none;fill-opacity:1;stroke:#ffffff;stroke-width:0.16500001;stroke-linecap:butt;stroke-linejoin:miter;stroke-miterlimit:4;stroke-dasharray:none;stroke-opacity:1"
       id="path4599-5-3-0-4" />
    <path
       sodipodi:nodetypes="cc"
       inkscape:connector-curvature="0"
       id="path4812-17"
       d="m 48.996218,55.332997 c 10.09292,4.373983 20.983221,5.635681 38.386647,6.310371"
       style="fill:none;stroke:#ffffff;stroke-width:0.1;stroke-linecap:butt;stroke-linejoin:miter;stroke-miterlimit:4;stroke-dasharray:none;stroke-opacity:1" />
    <path
       sodipodi:nodetypes="cc"
       inkscape:connector-curvature="0"
       id="path4810-6"
       d="m 57.20015,55.349534 c 11.125057,4.504627 22.544779,4.335629 34.540055,6.308725"
       style="fill:none;stroke:#ffffff;stroke-width:0.1;stroke-linecap:butt;stroke-linejoin:miter;stroke-miterlimit:4;stroke-dasharray:none;stroke-opacity:1" />
    <path
       sodipodi:nodetypes="ccccccccc"
       inkscape:connector-curvature="0"
       id="path6477-1"
       d="m 59.633658,60.531369 c -0.06758,1.360895 -0.03917,2.748331 0.04432,4.116483 0.08946,1.126466 0.263708,2.230586 0.736214,3.252856 0.671489,0 1.331479,0 1.985597,0 0.04352,-0.322728 -0.08489,-0.638299 -0.07209,-0.974193 -0.15939,-2.114418 -0.05477,-4.258696 -0.165251,-6.370415 -0.360166,-0.164121 -0.855434,-0.02347 -1.266438,-0.07029 -0.415153,0.03057 -0.864849,-0.06118 -1.262354,0.04555 z"
       style="opacity:1;fill:#ffffff;fill-opacity:1;stroke:#ffffff;stroke-width:0.02525381;stroke-linecap:square;stroke-miterlimit:4;stroke-dasharray:none;stroke-opacity:1" />
    <path
       sodipodi:nodetypes="cccccccc"
       inkscape:connector-curvature="0"
       id="path6479-6"
       d="m 68.340537,60.531369 c -0.108606,1.815672 -0.04976,3.655904 -0.145298,5.479979 7.94e-4,0.635145 -0.175255,1.258935 -0.176229,1.88936 0.764342,0 1.962119,0 2.718814,0 0.05044,-0.168886 0.113368,-0.176625 0.08605,-0.600815 v -6.681738 c -0.240914,-0.292573 -0.777428,-0.05608 -1.134591,-0.132331 -0.445135,0.02876 -0.920703,-0.05869 -1.348746,0.04554 z"
       style="opacity:1;fill:#ffffff;fill-opacity:1;stroke:#ffffff;stroke-width:0.02525381;stroke-linecap:square;stroke-miterlimit:4;stroke-dasharray:none;stroke-opacity:1" />
    <path
       style="fill:none;stroke:#ffffff;stroke-width:0.16599999;stroke-linecap:butt;stroke-linejoin:miter;stroke-miterlimit:4;stroke-dasharray:none;stroke-opacity:1"
       d="m 62.171826,63.232741 -5.17e-4,-2.751872 -2.537483,9.57e-4 -1.7e-4,2.835326"
       id="path7500"
       inkscape:connector-curvature="0"
       sodipodi:nodetypes="cccc" />
    <g
       id="g2651">
      <path
         sodipodi:nodetypes="ccccc"
         inkscape:connector-curvature="0"
         id="path7514"
         d="m 70.816815,63.223439 v 7.525581 h -2.534863 l -0.01565,-0.675594 c -0.784294,0.478255 -1.773045,0.756598 -3.040444,0.756598"
         style="fill:none;stroke:#ffffff;stroke-width:0.16599999;stroke-linecap:butt;stroke-linejoin:miter;stroke-miterlimit:4;stroke-dasharray:none;stroke-opacity:1" />
      <path
         sodipodi:nodetypes="cc"
         inkscape:connector-curvature="0"
         id="path7506"
         d="m 59.636064,63.268727 c 0,3.634013 0.829107,7.561297 5.589794,7.561297"
         style="fill:none;stroke:#ffffff;stroke-width:0.16599999;stroke-linecap:butt;stroke-linejoin:miter;stroke-miterlimit:4;stroke-dasharray:none;stroke-opacity:1" />
      <path
         sodipodi:nodetypes="cccccc"
         inkscape:connector-curvature="0"
         d="m 70.815652,63.268727 0.0031,-2.787875 -2.537854,0.001 0.0011,2.741537 m -5e-5,-3.5e-5 c 0,3.679425 -0.02275,7.364374 -3.039396,7.364374"
         style="fill:none;stroke:#ffffff;stroke-width:0.16599999;stroke-linecap:butt;stroke-linejoin:miter;stroke-miterlimit:4;stroke-dasharray:none;stroke-opacity:1"
         id="path4858-7" />
      <path
         sodipodi:nodetypes="cc"
         inkscape:connector-curvature="0"
         id="path7508"
         d="m 62.169759,63.223439 c 0,3.679425 0.05615,7.364374 3.072802,7.364374"
         style="fill:none;fill-rule:nonzero;stroke:#ffffff;stroke-width:0.16599999;stroke-linecap:butt;stroke-linejoin:miter;stroke-miterlimit:4;stroke-dasharray:none;stroke-opacity:1" />
    </g>
  </g>
</svg>
